<?xml version="1.0" encoding="UTF-8"?>
<svg version="1.1" viewBox="0 0 1024 1024" width="1024" height="1024" xmlns="http://www.w3.org/2000/svg">
<path transform="translate(510,3)" d="m0 0 2 1 10 29 15 40 2 7h11l49 4 36 4 3 1v2l-20 13-6 4 16 3 23 3 8-18 6-12 2 1 9 22 5 9 49 10v4l-9 7-6 4 17 4 14 2 11-22 2 2 9 24 1 3 10 3 19 7 14 5 2 7 1 20 8 3 33 10 39 12 57 18 3 1-1 36-2 38-3 33-6 47-8 44-8 34-10 35-12 36-10 27-11 27-13 30-18 36-6 10-9 14-4 1-1-4 7-16 16-33-6 9-12 21-8 12-7 6-4-5-2-1 1-6 10-14 11-16 13-22 14-26 13-28 10-26 10-28 12-40 9-38 6-34 3-18 5-45 3-46 1-26v-13l-6 7-4 6-1 10-2 39-4 48-3 21-13-6-15-6-29-10-37-12-42-11-39-9-28-5-38-6-30-4-43-4-38-2-53-1-45 1-58 3-36 3-54 7-44 8-32 7-35 9-28 8-38 13-22 9-14 8h-2l-3-21-4-37-3-33-1-21-1-7-9-10-4-4 2 10 4 57 5 43 8 49 8 37 7 26 12 37 10 25 5 13 9 20 16 32 10 17 7 11 15 22 10 14 6 7v4l-5 2 9-3 30-7 43-8 60-8 44-4 62-3 15-1h78l56 3 42 3 54 6 53 9 33 7 20 5 10 5 2 4-2 31-4 51-1 13-2 5-2 2-6 2-36 6-17 4 27-2 23 1 23 3-11-3-1-2 3-16 4-1 11 3 1-5 11-12h2l1-4 10-14 14-19 9-12-13-3-36-7-6-2 1-11h10l36 6 24 5 8 1 2 3-14 19-8 11-10 13-6 9 3 9 13 29 11 26 2 9-10-2-23-6-27-6-28-5-42-5-25-2-1-3 7-26 3-9 8 2-2 11-4 12 15-5 16-3 18-4h3l-1-2-25-7-46-8-42-5-61-5-61-3-56-1h-23l-63 2-55 3-36 3-23 3-17 2-36 6-27 7-8 3-1 2 13 2 28 6 10 4 2 1-3-12-3-13 4-1 4 2 5 12 6 25-37 2-25 3-35 6-35 8-21 6h-2l1-6 10-24 10-23 7-15-1-6-14-19-9-11-14-18-1-3-2-1 9-3 47-9 12-2h13l2 11-6 2-34 6-16 3 6 8 10 13 11 15 8 10-1 8 2-3 4 2 10 12v2l10-3 5 1 3 10 3 6v2l-15 3 10-1 5-1 15-1h29l15 2-1-2-21-3-29-6-10-2-2-2-2-13-3-36-4-44-4-13-12-19-8-14-7-11 11 23 13 26-1 4-4 1-7-10-7-12-6-12-10-19-13-26-14-31-10-24-14-38-8-25-12-42-9-40-8-51-5-49-4-59v-9l29-9 31-10 20-6 32-10 30-8 1-1 2-21 1-5 24-9 20-8 8-19 3-7 2 1 7 21 19-5 16-2-4-4-6-4-9-5 1-2 21-5 26-5 3-1 9-19 4-12 2-1 12 25 3 5 19-3 11-2h8v-2l-6-2-9-6-11-6-2-4 13-2 50-5 37-3 9-24 11-31zm4 45 1 69h2l5-5 7-6v-2h2v-2l4-2 57-1v2l-3-1v2l-5 1-18 8-36 13-4 1v3l16 6 4 2 5 15 7 20 3 9 3 7-5-2-4 1-17-8-18-10-3-2-6 1-22 11-24 10h-4l5-16 8-26 4-10 7-3v-1l-10-2-10-6-5-4-15-11-10-7v-2h31l22-1 5 4h2l-2-7 5-17 6-19-1-3-8 21-5 13-57 4-18 2 5 4 12 8 8 6-4 2-45 7-15 2h-8l-9-19-1-3h-2l-5 11-4 11-5 2-14 2-11 2-1 3 9 6 4 4 2 1-8 3-44 11-8 1-2-9-3-5-3 1-5 12-6 5-22 8-10 5-1 19-1 7-10 4-16 5-56 17-45 15v3l4 4 8-1 44-12 39-9 34-7 39-7 68-10 26-3 37-4 53-4 39-2h67l61 4 51 5 50 6 40 6 47 9 25 5 28 6 36 9 35 10 5-2 4-3-1-3-36-12-33-10-32-10-15-4-9-3-1-19-2-10-16-8-3 1 1 3-5 2-10 5 3 12 3 8v4h-2l-1-3-5-5-6-7-3-5-4 5-11 12-3 3v2l-2-1 7-22 1-3-9-6-3-3v-2l2-1h15l6-18 2 2 5 17h11l4-2-12-4-4-8-4-11h-2l-9 17-12-3-15-3-30-8h-2l11-7 9-6-2-2-17-3-13-2-4-8-6-14h-4l-4 10-6 11v2l-8-2-18-2-9-2-27-4-9-2-1-2 4-2 16-11 5-4-2-1-38-3-34-2-13-32-3-10zm-19 55 1 2zm15 29-7 9-10 12v2h-2l-9 11-16 17-1 3-2 1h3l5-5 13-8 17-9 15-7 16 10 12 7 13 10 2-1-17-17-11-14-11-12-7-8zm-17 73-51 2-45 3-28 3-42 5-49 7-58 10-42 9-44 11-27 8-6 3 3 48 3 29 2 16 1 3 9-3 20-8 36-12 30-9 56-13 19-4 49-8 57-7 44-3 46-2h78l45 2 46 4 40 5 43 7 35 7 64 16 14 4 23 7 40 15 6 3h3l2-13 3-38 2-38v-8l-9-4-43-11-46-11-52-10-48-8-19-3-32-4-36-4-68-5-38-1zm7 448-62 2-23 1-61 5-41 5-38 6-38 8-17 5-5 4v11l4 53v9l9-2 32-7 57-8 45-4 39-2 48-2 47-1 67 1 45 2 47 3 45 4 63 8 36 7 9 3v-2l-2-1v-18l3-46v-8l-8-4-19-5-53-10-49-7-38-4-61-4-21-1z" fill="#F6F6F6"/>
<path transform="translate(607,327)" d="m0 0h14l17 3 18 6 14 8 15 11 8 7 3-9 3-3 14-7 11-6 7-5 8-4 4 1 1 6-3 7-2 10h2l-1 4 9 3 17 7 2 3-4 3-20 8-6 3-10 8-10-1-12-4-4-3-6 1-6 4h-2v2l-14 7-11 7-17 10-23 14-7 5h-6l-4-4-2-7 5-5 22-12 3-1-4-5-7-3-12-1-9 3-6 4-6 7-3 10v11l3 8 6 8 6 4 10 3h7l12-3 8-6 6-10 1-2v-11l5-3 21-9 1 3v15l-3 15-4 10-9 11-10 9-12 6-8 2-13 1-15-3-16-8-6-5-9-11-6-13-2-8-1-14 2-12 4-10 7-10 9-8 8-5 14-5 6-1h15l12 3 10 5 12 11 1 2 4-2 11-6 3-3-5-5-8-7-14-9-12-6-16-3h-14l-18 4-16 8-13 10-8 10-6 10-5 13-2 15v9l3 16 6 16 10 16 9 10v1l30 1 10 3 9 6 6 8 4 16-3 15-6 9-4 4h-2v2l7 1 8 5 1 1v6l-6 8 2 6 4 6v6l-9 8-7 4h-5l-9-12-3-2-3 3-3 1v3l-2-1v-2l-6-1-9-11v-5l4-5-1-6-6-11-3-6v-10-3l-4-7-2-1-2 9h-7v-28h16l5 3 2 7-2 5-2 1 1 4 5 8 6 4 7 6 17 1 8-9 4-11v-8l-3-9-6-8-7-4-6-1h-199l-11 2-10 5-6 9-1 4v9l4 11 5 7 7 4 4 1h173l4 1 1 7-4 1h-172l-9-2-9-5-7-8-5-12-1-12 3-11 4-6 5-6 12-6 5-1 151-1-7-8-8-15-5-14-3-19v-19l4-21 7-16 8-12 12-12 13-9 17-8 18-5zm130 25-1 2h3v-2zm-8 11m-1 1m-8 4m-1 1-8 5 2 1 7-4zm-9 6m-3 1-4 4 5-1 2-3zm-6 4 1 2 1-2zm-142 132-1 1v6h6l2-2-1-4z" fill="#F9F9F9"/>
<path transform="translate(306,766)" d="m0 0h8l8 7 28 28 8 7 10 9 11 9 10 9 17 13 14 10 13 10 19 13 24 16 13 9 13 8 10 5 6-2 15-9 17-12 24-16 18-13 14-10 12-9 13-10 10-8 15-13 12-11 5-5h2l2-4 12-11 9-9 9-11h8l19 5v3l-9 10-7 8-26 26-8 7-10 9-17 14-13 11-15 12-17 13-15 11-17 12-12 8-16 11-10 6-16 10-13 8-5-1-10-7-16-10-36-24-18-13-17-12-20-15-14-11-13-11-11-9-11-10-3-2v-2l-4-2-17-16-21-21v-2h-2l-7-9v-3h7l6-3z" fill="#F8F8F9"/>
<path transform="translate(337,336)" d="m0 0 3 1-4 15v27l3 17 5 17 8 18 11 20 11 13 11 8-1 2-8-1-15-4-16-3-13-1h-12l-25 1-25 5-6 2 10-2 17-3 3-1 3 4 8 16 9 16 9 14-3 9-7 5-9 3h-10l-4-2-9-16-8-16-11-19-2-5-2 1h-11l-9-6-7-9-6-14-2-9v-14l1-8 5-5 26-13 10-6 6-4 5-1v2l11-8 13-10 9-7 9-8 9-11 5-5zm-68 70-15 7-13 5-6 1-1 6 3 14 4 9 6 10 8 9 2-3 13-1 19-4-1-4-6-8-6-14-3-11-2-16zm64 23-19 3-23 6 1 6 6 5 5 2 46 1-3-10-5-12z" fill="#F9F9FA"/>
<path transform="translate(889,374)" d="m0 0 5 1 6 3-3 19-7 27-7 21-4 11-8 19-8 18-13 23-16 24-10 14-13 16-9 10-9 11-8 8-7 8-11 11-5 4-5 5-16 15-8 7-7 5-28-5-42-5-7-1 3-3 32-16 22-12 19-12 14-9 17-12 9-7 14-12 13-12 18-18 7-8 13-17 8-11 10-16 10-18 10-22 11-29 8-29z" fill="#F9F9F9"/>
<path transform="translate(128,375)" d="m0 0h5l3 8 6 21 14 36 13 26 13 22 10 14 8 11 9 10 5 6v2l4 2 9 10 7 7 16 14 11 9 18 14 16 11 21 13 25 14 19 9 11 6 1 2-10 2-39 5-20 4-13-10-11-9-10-8v-2l-4-2-6-5v-2l-4-2-21-21v-2l-4-2-10-11-9-11-11-14-9-12-13-19-10-16-6-11-8-16-10-22-11-31-7-25-4-18 1-5z" fill="#F9F9FA"/>
<path transform="translate(441,120)" d="m0 0h9l7 7 10 8 1 1-1 8-4 15-5 17-4 12-1 1-29 3-34 2-34 3-47 6-12 2h-8l-5-15-1-6 9-11 5-6 1-2h-8l-2-2 22-6 24-6 2 3-2 9-2 16v3l13-7 13-8 4 1 12 7 14 7-4-13-2-9-2-6v-5l7-6 6-5 6-8 1-2zm-23 22-4 12-11 3 4 4 3 2-1 10-1 6 7-6 6-1 10 6 1-4-3-9 1-5h5l7-5-3-1h-14l-5-12z" fill="#F9F9F9"/>
<path transform="translate(572,120)" d="m0 0 10 1 23 4 15 2 5 3 7 9 8 7 3 4-1 8-5 22h3l20-11 3-2h3v2l5 2 16 10 7 3-4-16-4-12-1-4 9 1 30 7 9 2-3 1v2l-5 1 3 5 10 10v2h2l-1 9-4 12-1 1h-9l-50-7-39-4-65-5-6-15-12-36 1-4 13-10zm32 20-5 12-1 2-16 1 4 3 5 3 2 4-2 12 5-1 6-4 9 3 5 3-2-11 2-5 6-4v-1l-13-2-2-9-2-6z" fill="#F9F9F9"/>
<path transform="translate(389,487)" d="m0 0h209l10 3 9 6 6 8 4 16-3 15-6 9-4 4h-2v2l7 1 8 5 1 1v6l-6 8 2 6 4 6v6l-9 8-7 4h-5l-9-12-3-2-3 3-3 1v3l-2-1v-2l-6-1-9-11v-5l4-5-1-6-6-11-3-6v-10-3l-4-7-2-1-2 9h-7v-28h16l5 3 2 7-2 5-2 1 1 4 5 8 6 4 7 6 17 1 8-9 4-11v-8l-3-9-6-8-7-4-6-1h-199l-11 2-10 5-6 9-1 4v9l4 11 5 7 7 4 4 1h173l4 1 1 7-4 1h-172l-9-2-9-5-7-8-5-12-1-12 3-11 4-6 5-6 12-6zm170 25-1 1v6h6l2-2-1-4z" fill="#F1F1F2"/>
<path transform="translate(609,368)" d="m0 0h15l12 3 10 5 12 11v3l-21 12-5-1-5-3-4-2-12-1-9 3-6 4-6 7-3 10v11l3 8 6 8 6 4 10 3h7l12-3 8-6 6-10 1-2v-11l5-3 21-9 1 3v15l-3 15-4 10-9 11-10 9-12 6-8 2-13 1-15-3-16-8-6-5-9-11-6-13-2-8-1-14 2-12 4-10 7-10 9-8 8-5 14-5z" fill="#F9FAFA"/>
<path transform="translate(511,40)" d="m0 0h1l1 5 1 19 1 52 2 1 1-3 10-8 1-2h2v-2l4-3h57v2l-6 2-17 8-39 14h-4v3l10 3 10 4 3 7 10 29 3 9 2 7-5-1-4 1-17-8-18-10-3-2-6 1-22 11-24 10-4-1 1-5 5-17 6-20 4-10 6-3-8-2-10-6-5-4-15-11-11-8 1-3h31l22-1 7 5-3-5 2-10 9-28 3-8zm-16 63 1 2zm15 29-7 9-10 12v2h-2l-9 11-16 17-1 3-2 1h3l5-5 13-8 17-9 15-7 16 10 12 7 13 10 2-1-17-17-11-14-11-12-7-8z" fill="#F9F9F9"/>
<path transform="translate(735,795)" d="m0 0 1 3-5 15-5 9-12 14-4 4h-2l-2 4-10 9-15 14-11 9-10 9-14 11-15 12-16 12-15 11-18 13-15 10-14 9-22 14-9 6-9 5-4-1-16-10-15-9-11-7-25-17-13-9-19-14-28-22-7-6-11-9-14-12-10-9-11-10-5-4-22-22-6-10-6-16 1-3 4 2 7 9 12 13 16 15 13 13 11 9 10 9 11 9 13 11 10 8 12 9 14 11 19 14 19 13 18 12 23 14 8 5 5-1 15-10 22-14 24-16 20-15 15-11 13-10 14-11 10-8 11-9h2v-2l8-7 10-9 16-15 22-22 7-8 9-10z" fill="#F5F5F5"/>
<path transform="translate(823,691)" d="m0 0h10l36 6 24 5 8 1 2 3-14 19-8 11-10 13-6 9 3 9 13 29 11 26 2 9-10-2-23-6-27-6-28-5-33-4v-2l-21-1-12-1 2-12 1-5h1v5l4-1-1 7 6-1 24-2 23 1 23 3-11-3-1-2 3-16 4-1 11 3 1-5 11-12h2l1-4 10-14 14-19 9-12-13-3-36-7-6-2z" fill="#F8F8F8"/>
<path transform="translate(187,691)" d="m0 0h13l2 11-6 2-34 6-16 3 6 8 10 13 11 15 8 10-1 8 2-3 4 2 10 12v2l10-3 5 1 3 10 3 6v2l-15 3 10-1 5-1 15-1h29l15 2 4 1v-7h2l2 8v5l-35 2h-10v2l-44 7-40 9-21 6h-2l1-6 10-24 10-23 7-15-1-6-14-19-9-11-14-18-1-3-2-1 9-3 47-9z" fill="#F9F9F9"/>
<path transform="translate(904,380)" d="m0 0 10 3 2 1v8l-6 33-9 38-7 24-11 33-11 27-13 28-10 19-10 17-17 25-10 13-9 11-5 6-10-1-20-5 2-4 9-9 7-6 7-8 9-10 7-9 10-13 7-10 10-16 8-14 9-17 10-22 4-10 9-23 6-18 10-35 8-37 3-17z" fill="#F8F8F8"/>
<path transform="translate(116,380)" d="m0 0h2l3 11 8 36 5 18 8 26 12 31 9 20 8 16 11 21 6 9 5 9 10 14 8 11 11 14 9 10 7 8 17 17 5 4 1 3-16 4-11 3-8-7-11-14-14-19-10-15-12-19-14-25-9-17-6-13-11-26-14-40-10-39-6-29-2-13v-5z" fill="#F7F8F8"/>
<path transform="translate(360,323)" d="m0 0h10l10 4 8 7 9 10 9 14 8 16 6 15 5 16 4 24v20l-4 13-6 8-6 5-7 2h-8l-10-5-11-11v-2h-2l-13-19-7-12-6-14-8-27-3-11v-25l3-12 3-5 7-7zm5 7-8 4-5 6-3 10-1 4v18l3 15 6 19 9 20 3 5h2v-2l6-2 12-6-2-4-4-5h-2l-2-4-4-1-9 3-4-4-6-23 6-1 10-3 3-3 4-1 7 3 6 7 6 12 1 3v14l-3 6v2h-2v2l-5 1-13 5-1 3-4 2 10 13 9 9 8 5 3 1h8l7-6 4-13v-14l-3-20-5-17-7-19-10-20-9-12-6-7-7-4z" fill="#F4F4F4"/>
<path transform="translate(818,463)" d="m0 0h2l-1 5-10 18-8 12-10 14-9 12-13 16-24 24-8 7-13 11-18 13-15 10-22 13-20 11-25 11-13 3-39-2-11-1v-2l24-9 31-12 33-14 26-12 26-14 25-16 14-11 14-12 15-14 11-12 9-10 6-8 14-19 8-11z" fill="#F6F7F7"/>
<path transform="translate(655,761)" d="m0 0 1 3-7 8-16 12-18 13-16 11-17 11-25 15-14 8-15 9-10 5 2 9 1 5h14l7 1-2 4-12 8h-2l5 19v5l-12-7-5-3-6 1-13 8-3-3 5-16-2-4-11-8-2-1 1-3 19-2 4-12-8-5-24-13-13-8-20-12-16-10-10-7-2-1v-2l-5-2-18-13-10-8-10-9v-2h-2v-2l5 1 13 8 23 15 11 7 17 11 17 10 14 8 15 9 28 14 4-1 34-18 10-6 22-13 18-11 11-7 20-13 14-9z" fill="#F4F4F4"/>
<path transform="translate(213,479)" d="m0 0 5 2 7 11 9 11 11 13 12 13 10 10 11 9 13 10 19 13 17 10 18 10 22 11 26 11 28 11 22 8 12 4 5 2v2l-5 1-45 2-17-7-31-15-18-10-19-12-15-10-15-11-16-13-13-12-10-10-7-8-12-15-11-16-9-14-4-9z" fill="#F7F7F7"/>
<path transform="translate(703,391)" d="m0 0 3 1 5 10 3 15v17l-2 13-5 17-5 11-7 11-11 12-10 8-8 5-11 5-12 4-14 1-6-18v-3l9-1 22-9 12-8 8-8 7-10 7-14 4-18v-16l-3-12-1-7 11-4z" fill="#F8F8F8"/>
<path transform="translate(352,671)" d="m0 0h4l1 37v22l-1 1-8 1h-10v-34l-5 12-10 23-8 1-4-5-7-13-6-12v31l-1 2-9 1-8 1-1-3v-55l12-2 10-1 6 8 8 16 3 3 12-27 2-5 12-1z" fill="#F8F8F8"/>
<path transform="translate(793,245)" d="m0 0 11 1 10 3 9 15 12 21v-31l8 1 11 3 1 1-2 64-17-4-6-9-12-22-4-6v-4h-2l-1 35-9-1-10-2-1-2 1-14z" fill="#F9F9F9"/>
<path transform="translate(551,506)" d="m0 0h16l5 3 2 7-2 5-2 1 1 4 5 8 6 4 6 7 4 1h9l8 3 10 2 8 5 1 1v6l-6 8 2 6 4 6v6l-9 8-7 4h-5l-9-12-3-2-3 3-3 1v3l-2-1v-2l-6-1-9-11v-5l4-5-1-6-6-11-3-6v-10-3l-4-7-2-1-2 9h-7zm8 6-1 1v6h6l2-2-1-4z" fill="#FAFAFA"/>
<path transform="translate(467,330)" d="m0 0 3 1 10 13 3 2 24 3 3 1-1 5-5 5h-2l-2 4-7 6 6 23 1 6-7-1-13-6-8-4-2 4-9 7-9 6h-2v-27l-3-3-16-10-2-3 10-5 13-5 4-5 6-12z" fill="#FAFAFA"/>
<path transform="translate(480,215)" d="m0 0 10 2 8 4 7 7 4 10 1 5v10l-3 10-8 10-12 6-11 2-13-1-10-5-7-8-4-11v-13l4-11 9-10 7-4 6-2zm-5 15-7 2-4 5-2 11 2 11 5 5 2 1h9l5-3 3-5 1-4v-12l-3-6-4-4z" fill="#F8F8F8"/>
<path transform="translate(749,235)" d="m0 0h7l13 4 9 6 7 9 4 11v17l-4 10-5 6-8 4-5 1h-13l-10-3-8-5-7-8-3-5-2-7v-17l4-10 5-6 8-5zm4 15-5 3-3 5-1 4v12l4 9 5 4 8 1 5-3 3-5 1-11-3-12-4-5-4-2z" fill="#F8F8F8"/>
<path transform="translate(469,665)" d="m0 0h20l-1 14v45l-16 1-5-3-21-28v30l-1 1-13 1-4-1-1-36-1-22 6-1h14l5 6 8 11 11 15v2h2l-1-3z" fill="#F8F8F8"/>
<path transform="translate(679,675)" d="m0 0 15 1 21 3 10 4 7 6 4 9-1 8-4 6-6 4 7 10 7 11 2 3h-10l-9-1-6-4-8-15-8-3v10l1 7-1 1-14-1-7-2zm20 15v13l6 2h6l4-3v-7l-4-3-8-2z" fill="#F7F8F8"/>
<path transform="translate(583,666)" d="m0 0h15l15 3 1 16-18-4h-7l-8 3-4 5-1 4v8l4 8 7 4h11v-8l-10-1 1-13 23 2 6 1v12l1 18-8 3-11 1h-17l-11-4-9-7-6-10-2-6v-11l4-9 7-8 6-4z" fill="#F7F7F7"/>
<path transform="translate(246,240)" d="m0 0h10l10 24 6 15 7 15v2l2 1-9 3-11 2-6-11h-7l-14 4-3 12-20 4 4-16 8-25 8-26zm-3 20-4 13v5l12-1-2-6-4-11z" fill="#F8F8F9"/>
<path transform="translate(546,218)" d="m0 0h21l3 2 13 36 6 18 4 7-21-1-2-1-3-10-1-1-17-1-3-1-1 10v2l-7 1-15-1 3-9 13-32 6-17zm10 20-5 13v2h11l-2-9-2-6z" fill="#F8F8F8"/>
<path transform="translate(399,668)" d="m0 0 5 1 8 20 8 19 6 15v3h-19l-4-10v-2l-9 1h-12l-3 13-4 2-15 1-2-2 17-46 2-6 1-7zm-8 18-5 14v3h8l4-2-5-14z" fill="#F8F8F8"/>
<path transform="translate(516,664)" d="m0 0h14l7 1 10 27 11 28 1 4-5 1-15-1-3-8-1-3-21-1-3 12h-10l-10-1 2-6 8-20 5-12 7-15zm8 19-5 13 1 3h10l-3-11-2-5z" fill="#F7F8F8"/>
<path transform="translate(200,249)" d="m0 0h9l2 4 1 15-9-1h-11l-9 4-4 5-2 4v12l3 6 4 3 6 1 9-3 10-5 2 5v8l-2 5-11 5-14 3-10-1-7-3-5-4-5-8-2-7-1-11 2-9 6-10 8-8 12-6z" fill="#F7F7F8"/>
<path transform="translate(291,467)" d="m0 0 4 1 10 19 9 16 9 14-3 9-7 5-9 3h-10l-4-2-9-16-8-16-3-5-4-10-3-5-1-5 9-1 5 7 6 12 10 19 5 5-6-10-8-16-6-10-5-9 13-3 6-1z" fill="#FAFAFB"/>
<path transform="translate(626,670)" d="m0 0h13l21 2 10 2 1 11v1h-25v6l21 3v13l-21-2v11h13l15 1 1 1v11l-1 1h-17l-26-2-5-1z" fill="#F7F7F7"/>
<path transform="translate(739,328)" d="m0 0 4 1 1 6-3 7-2 10h2l-1 4 9 3 17 7 2 3-4 3-20 8-6 3-10 8-10-1-12-4-4-3h-6l5-5 16-10 20-12-6 2-11 7-9 5-20 11-21 13-21 12-26 15-3 2-3-1 9-6 21-12 26-15 16-10 14-8 9-5 2-11 4-11h-3l-2-1 11-6 7-5zm-2 24-1 2h3v-2zm-8 11m-1 1m-8 4m-1 1-8 5 2 1 7-4zm-9 6m-3 1-4 4 5-1 2-3zm-6 4 1 2 1-2z" fill="#D2D3D4"/>
<path transform="translate(510,757)" d="m0 0h2l9 23 6 1 22 1v2l-21 15 4 16 2 7v5l-4-1-11-9-6-5-5 2-11 9-6 4-3-1 3-15 3-13-11-7-8-6v-3l27-1 3-11z" fill="#F7F7F7"/>
<path transform="translate(611,220)" d="m0 0h14l10 2 3 2v17l-10-4-10-1-6 3-3 4-1 3v11l5 8 6 3h10l11-3 1 1v16l-8 2h-17l-9-2-10-6-7-8-3-11v-14l3-8 6-8 12-6z" fill="#F7F8F8"/>
<path transform="translate(718,342)" d="m0 0 2 1-4 8-2 7-1 8-14 8-17 10-18 11-21 12-19 11-6 4 5-2 23-13 19-11 28-17 27-15 13-8 5-1-4 4-13 8-9 5-15 10-5 5-4 1v2l-14 7-11 7-17 10-23 14-7 5h-6l-4-4-2-7 5-5 22-12 3-1v-2l16-8 9-5 4-2 11-6 3-3-1-2 7-2 9-6-1-6h2l3-9 3-3 12-6z" fill="#F8F8F8"/>
<path transform="translate(438,218)" d="m0 0 5 1v15l-15 1v38l1 6-2 2-8 1h-13v-42l1-3-8 1h-10l-1-13 1-2 17-2z" fill="#F8F8F8"/>
<path transform="translate(643,223)" d="m0 0 38 4 14 2 1 11-1 4-16-2-1 14 1 32-3 1-17-2-3-1 1-14 1-32-14-1-1-1z" fill="#F7F7F8"/>
<path transform="translate(344,225)" d="m0 0h5l1 45v2l13-3 12-2 1 1v16l-1 1-27 3-6 1h-12l-2-53v-8l1-1z" fill="#F8F8F8"/>
<path transform="translate(664,107)" d="m0 0 2 1 2 7 1 17v4l9-3 4-1h11l6 1v3l-10 6-10 5 3 4 5 15 2 8v4l-4-2-7-5-9-12-2-6h-2l-2 4-7 8-3 1v2l-5 2v2l-6 2-1 3 1-7 6-19 2-2v-4l-10-5-7-6 1-3v2l5-2 7 1 9 2 1-6 4-11z" fill="#F5F5F5"/>
<path transform="translate(295,232)" d="m0 0h6l1 33v14l8-2 10-2h6l1 1v14l-38 6h-7l-1-43v-18l1-1z" fill="#F8F8F8"/>
<path transform="translate(356,110)" d="m0 0 3 1 3 23 4-1 18-3h10l-5 5-7 4-9 5h-2l7 14 4 12-1 4-6-3-9-8-6-8-2-2-11 15-8 7-4 2 1-9 5-17 2-4-5-1-11-7v-2h-2l-1-3 4-1h21l1-6 2-9z" fill="#F6F7F7"/>
<path transform="translate(876,375)" d="m0 0 2 1-1 9-7 24-9 25-10 21-13 22-11 16-14 18-10 11-3 4h-2l-2 4-8 7-3 2-1-4 10-13 11-15 18-27 12-19 13-24 12-26 12-31 4-2z" fill="#F1F1F2"/>
<path transform="translate(510,565)" d="m0 0h2l6 17 1 4 22 1v3l-3 1v2l-12 8 1 8 3 12v3l-4-1-13-9-4-1-12 10-5 2v-7l5-17-5-2-9-7-4-3v-2h22l2-6 5-14z" fill="#F7F7F7"/>
<path transform="translate(146,377)" d="m0 0h2l11 24 8 18 11 23 10 17 11 18 17 25 8 11 9 12 6 9v3l-4-1-7-6v-2l-4-2-7-9-5-5-20-26-11-18-13-24-8-17-7-20-7-22-1-7z" fill="#F1F2F2"/>
<path transform="translate(234,409)" d="m0 0h3l-2 16 3 14 4 9 6 10 7 8 2-3 13-1 13-3h6l1-3 4 6v4l-24 5-6 2h9l6 10 9 16 10 18-1 2-6-7-14-27-6-10-8 1 3 8 4 7-1 2-7-12-2-5-2 1h-11l-9-6-7-9-6-14-2-9v-14l1-8 5-5z" fill="#F7F7F7"/>
<path transform="translate(700,230)" d="m0 0 19 2 2 1-1 15v43l1 3h-10l-12-2-1-4 1-8z" fill="#F7F7F8"/>
<path transform="translate(757,148)" d="m0 0 3 4 4 13v4l11-1 1-1-5-2 4-1 13 4 4 4-8-2v3l-12 7h-3l7 20v5l-3-1-7-8-6-7-2-4-9 11-8 8-1 2-3-1 7-22 2-3-5-2-8-7 1-3 2-1h10l5 1 3-12z" fill="#F5F5F5"/>
<path transform="translate(232,175)" d="m0 0 4 1 11 6 4 4-6 23 5-3 7-6 10-4 5 1 8 6v2l2 1-58 11v-38l4-3z" fill="#F7F8F8"/>
<path transform="translate(791,175)" d="m0 0h5l4 5v36h-7l-17-4-24-3-10-2 2-4h2v-2l9-6 5 2 18 11 1 1-2-12-2-11 3-5 9-5z" fill="#FBFBFB"/>
<path transform="translate(603,872)" d="m0 0 6 1v2l-8 7-13 10-17 12-14 9-12 9-21 13-9 6h-3v-13l17-11 16-10 14-8 18-11 10-7z" fill="#D2D3D4"/>
<path transform="translate(420,871)" d="m0 0 6 2 19 12 17 11 15 10 31 20v7l-1 2-6-1-18-10-15-10-17-12-13-9-10-9-10-8-3-2v-2z" fill="#D2D3D4"/>
<path transform="translate(265,149)" d="m0 0h1l4 20 8-2h9l3 1-2 4-7 5-4 1 2 5 5 13 2 5v3l-4-2-8-7-7-8-2-2-9 13-5 5-3 2 1-7 4-16-1-2-12-6v-3l9-3h9l5-15z" fill="#F3F3F4"/>
<path transform="translate(740,358)" d="m0 0 9 1 17 7 2 3-4 3-20 8-6 3-10 8-10-1-12-4-4-5 9-4h3v-2l2-1h6l11 4v-2l-4-1-8-3 1-3 6-3 1-2 7-4z" fill="#FBFBFB"/>
<path transform="translate(696,762)" d="m0 0 1 2-6 8-11 13-17 17-8 7-11 10-8 7-11 10-12 9-16 13-10 7-13 8-6 3-2-1 4-4 13-10 6-5 8-6 16-13 14-11 16-15 8-7 16-15 8-7 17-17z" fill="#EDEEEE"/>
<path transform="translate(206,777)" d="m0 0 5 1 3 10 3 6v2l-15 3-13 2-23 6h-4l1-5 5-9 20-9 7-3h4v-2z" fill="#FCFCFC"/>
<path transform="translate(816,777)" d="m0 0 6 1v2l8 1 23 10 5 2 7 13v2l-10-2-28-7-15-3-1-2 3-16z" fill="#FCFCFC"/>
<path transform="translate(325,761)" d="m0 0 4 2v2l4 2 11 11 8 7 7 7 8 7 17 16 11 9 13 11 14 11 13 11 9 6 11 9-3 1-19-11-12-10-11-8-11-9-13-11-14-12-15-14-16-16-7-8-9-10z" fill="#EDEDEE"/>
<path transform="translate(449,579)" d="m0 0h2l6 13v3h17l-5 5-7 5 2 10 1 9-6-4-8-6-6 4-7 4 1-7 2-9-11-8-1-2 16-1 2-9z" fill="#F4F4F4"/>
<path transform="translate(847,755)" d="m0 0v3 6l10 21 13 26v2l-9-3-34-8-6-1 2-3 8 1 28 7 6 2-8-15-13-5-14-6-8-2v-1l7 1 1-5 11-12h2l1-4z" fill="#D2D3D4"/>
<path transform="translate(220,427)" d="m0 0h1l3 21 8 20v2h-11l-6-3-5-6-4-9-1-5v-8l2-5 7-5z" fill="#F6F6F6"/>
<path transform="translate(179,758)" d="m0 0 2 1-1 8 2-3 4 2 10 12v2l3 1-16 6-15 7-6 13 30-8h14l11-2 15-1h29v1l-28 1-20 2-13 2-8 1-36 9 2-7 8-14 9-20 4-9z" fill="#D2D3D4"/>
<path transform="translate(515,157)" d="m0 0 9 5 15 9 6 4 14 10-1 2-5-1-19-9-14-8-3-2-6 1-22 11-24 10-4-1 1-5 2-3 1 2 10-10v3l-9 9v1l10-7 10-6 15-8z" fill="#EDEEEE"/>
<path transform="translate(567,583)" d="m0 0 3 3 3 7v3h16l-5 5-6 4 1 6 2 10-5-2-6-5-5 1-7 5h-2l1-15-9-7 1-2h14l1-5z" fill="#F6F6F6"/>
<path transform="translate(306,766)" d="m0 0h8l8 7 7 7-1 4 2 7 5 5 4 5 3 7-5-1-16-15-10-8-8-6-7-3v-2l-2-1 1-2 6-3z" fill="#D2D3D4"/>
<path transform="translate(707,766)" d="m0 0h8l19 5-4 2-2 3-1-1-4 2-9 8-7 4-12 11-5 4-2-4 2-5 3-4 4-8 3-5-2-1z" fill="#D2D3D4"/>
<path transform="translate(551,506)" d="m0 0h16l5 3 2 7-2 5-2 1 1 4 4 6v5l-6-1-5-6-2-4-2-1-2 9h-7zm8 6-1 1v6h6l2-2-1-4z" fill="#F3F4F4"/>
<path transform="translate(579,823)" d="m0 0h2l4 10v2h10l-6 7h-2l2 7v6h-4l-5-3-6 2-6 4 1-8 2-6-10-8v-1l13-1 3-9z" fill="#F4F4F5"/>
<path transform="translate(289,456)" d="m0 0 4 4 1 6-24 5-6 2h9l6 10 9 16 10 18-1 2-6-7-14-27-6-10-8 1 3 8 4 7-1 2-7-12-4-8-6-7 1-2 2 2 2-3 13-1 13-3h6z" fill="#F5F5F5"/>
<path transform="translate(739,328)" d="m0 0 4 1 1 6-3 7-2 10-10 4-10 6h-2l-1 2 1-10 3-9 3-6 10-6 4-2z" fill="#FAFAFA"/>
<path transform="translate(444,824)" d="m0 0 3 1 4 8v2l2-1 9 1v2l-8 6 2 14h-3l-7-5-6 1-5 2 1-9 1-4-4-2-4-5 11-1z" fill="#F1F2F2"/>
<path transform="translate(465,506)" d="m0 0h7l1 3-1 7 6-5 4-5h8l-6 9-2 2 1 5 7 11v1h-8l-7-10-2 2-1 8h-7z" fill="#F1F2F2"/>
<path transform="translate(501,506)" d="m0 0h7v11l9-1v-10h7v28h-7v-12h-9v11l-1 1h-6z" fill="#F2F2F2"/>
<path transform="translate(528,506)" d="m0 0h19v6h-12v5h11l-1 5-9 1-1 4h12v7h-18l-1-1z" fill="#F1F1F1"/>
<path transform="translate(578,506)" d="m0 0h18l1 5-1 1h-11v5h11v5h-11v6l12-1 1 1v6h-19l-1-1z" fill="#F2F2F2"/>
<path transform="translate(509,420)" d="m0 0 4 2-5 3-30 5-37 5h-7l-3-2 14-4 44-7z" fill="#EDEEEE"/>
<path transform="translate(735,433)" d="m0 0h2l4 12v2l10 2v3l-9 5h-2l-1 10-1 4-3-1-5-13-10-5 2-2 9-3 3-10z" fill="#F3F3F3"/>
<path transform="translate(397,505)" d="m0 0 9 2v7l-10-1-3 4v6l4 4 9-1v6l-3 2h-10l-5-3-3-7v-9l4-7z" fill="#F1F2F2"/>
<path transform="translate(447,506)" d="m0 0h12l2 2v6l-10-1-3 4v7l1 2h12v6l-3 2h-10l-7-6-1-3v-10l4-7z" fill="#F1F1F2"/>
<path transform="translate(755,195)" d="m0 0 5 2 18 11 1 1v-9h1l1 5v7l3 1-11-1-21-3-10-2 2-4h2v-2z" fill="#F1F1F1"/>
<path transform="translate(508,405)" d="m0 0 4 2-3 2-34 8-31 6h-7l-1-2 19-6 29-6z" fill="#EAEAEB"/>
<path transform="translate(269,767)" d="m0 0h5l3 3 4 11 6 25-37 2-10 1-1-2 22-2h23l-2-8v-5l-1 3v5h-4l-2-4h-2v-2h2l-7-24z" fill="#D5D6D7"/>
<path transform="translate(268,416)" d="m0 0h2l1 9-24 11-7 3-2-3v-7l25-11z" fill="#F0F1F1"/>
<path transform="translate(840,764)" d="m0 0 4 1 8 16 4 9-6-2-14-6-7-2 1-5z" fill="#FAFAFA"/>
<path transform="translate(267,196)" d="m0 0 5 1 8 6v2l2 1-37 7h-6v-1h5v-7l1 4 5-3 7-6z" fill="#F7F7F7"/>
<path transform="translate(748,767)" d="m0 0 8 2-2 11-4 12 5-1-2 2h-3l1 1h8v1l-12 2v-5h-4l-3 12 4-1 24 2 5 1v1l-26-1-8-1-1-3 7-26z" fill="#D7D8D8"/>
<path transform="translate(474,317)" d="m0 0 4 1-5 5-17 10-15 9-14 8-8 4h-2l2-4 6-4 14-9 17-10z" fill="#E8E8E9"/>
<path transform="translate(182,764)" d="m0 0 4 2 8 10 1 4-25 10 2-5 8-18z" fill="#FAFAFA"/>
<path transform="translate(410,506)" d="m0 0h7v21h10v7h-17z" fill="#F1F2F2"/>
<path transform="translate(796,411)" d="m0 0h2l3 8 7 2v3l-8 4-2 6-5-2-3-6-6-3v-3l8-2 3-6z" fill="#F2F3F3"/>
<path transform="translate(429,506)" d="m0 0h8v27l-1 1h-6l-1-2z" fill="#F3F3F3"/>
<path transform="translate(779,376)" d="m0 0 3 4 3 5 5 2-3 3-5 2-2 10-2-1-3-8-5-3v-2l-2-1 2-1h6l2-9z" fill="#EFEFF0"/>
<path transform="translate(252,464)" d="m0 0 3 2 2-1 1 6 6 1 3 1h6l6 10 9 16 10 18-1 2-6-7-14-27-6-10-8 1 3 8 4 7-1 2-7-12-4-8-6-7z" fill="#D2D3D4"/>
<path transform="translate(631,796)" d="m0 0 3 4 1 3 5 2-2 4-3 1-2 6-1-3-5 3-2 1v-7l-7-5 1-2h9l2-6z" fill="#EEEFEF"/>
<path transform="translate(767,436)" d="m0 0 3 4 4 7 5 2-3 2-4 2-2 10-1-2h-2l-2-8-7-2v-2l6-3z" fill="#F1F1F1"/>
<path transform="translate(393,797)" d="m0 0h3l2 4 7 3v2l-5 3-2 6-2 1v-3l-4 2v-2h-2l-2-5-4-3 6-3h2z" fill="#F0F1F1"/>
<path transform="translate(257,358)" d="m0 0 2 1 3 6 3 2-1 4-2 1-2 6-3 1-3-6-5-2v-2h2v-2l2-1 3-7z" fill="#F3F3F3"/>
<path transform="translate(581,763)" d="m0 0h2l2 4 2 1v4l2 1-5 3-2 5h-2l-3-6-5-3-1-3 7-2z" fill="#eee"/>
<path transform="translate(412,589)" d="m0 0 3 4 1 3 5 2v2l-7 6-2 3-3-1-1-6-3-2v-3l5-1 1-6z" fill="#EEEEEF"/>
<path transform="translate(386,392)" d="m0 0 3 1 4 8v5l-3 2h-6l-1-3-2-1v-2h-2l1-2 2 1-1-5 3-2 2 1z" fill="#D3D4D5"/>
<path transform="translate(147,582)" d="m0 0 3 3 8 16 14 27 3 9 2 4-1 3-20-41-9-19z" fill="#D2D3D4"/>
<path transform="translate(607,773)" d="m0 0 3 3v4h2l1 6-5 1-5 2-4-8 4-1 1-4z" fill="#EFEFEF"/>
<path transform="translate(508,405)" d="m0 0 4 2-3 2-9 2-13 1h-7l-11 2h-5l4-2z" fill="#E2E3E4"/>
<path transform="translate(512,39)" d="m0 0 2 1 4 12-1 3-2-6v67h-1l-1-52z" fill="#D2D3D4"/>
<path transform="translate(875,593)" d="m0 0 1 3-17 36-2 3-1-1-9 15-1-2 8-14 5-8 11-22z" fill="#D2D3D4"/>
<path transform="translate(845,375)" d="m0 0 3 3 1 3 4 2-3 3h-2l-1 7-2 1-5-8v-4l3-3z" fill="#F1F2F2"/>
<path transform="translate(418,773)" d="m0 0h2l2 5h2l1 5-5 4-4-1-5-4v-2l4-1z" fill="#F0F0F1"/>
<path transform="translate(177,375)" d="m0 0 2 3 2 5h4v2l-3 3h-2l-2 6-3-4-1-2-3-2 3-5z" fill="#F4F4F4"/>
<path transform="translate(510,29)" d="m0 0h1l1 8-7 22h-2l-6 17-3 4 1-5 11-30z" fill="#D2D3D4"/>
<path transform="translate(364,421)" d="m0 0 2 2 3 6v2h2v-2l15-8 3 1-5 3 2 2-10 4-3 3-3 1-6-10z" fill="#D8D9DA"/>
<path transform="translate(375,387)" d="m0 0 2 1 1 14 6 9 8 9-3 1-6-8-5-5-7 1 3-4z" fill="#D2D3D4"/>
<path transform="translate(696,353)" d="m0 0 1 3-2 14-9 6-8 5-2-1v-3-1l7-2 9-6-1-6h2z" fill="#D2D3D4"/>
<path transform="translate(443,765)" d="m0 0h4v2h5l-2 7-6 2-2-4h-2l2-5z" fill="#F2F2F2"/>
<path transform="translate(799,357)" d="m0 0 2 1 1 3 2 1-2 4-5 5-3-6-2-3 4-4z" fill="#EDEDEE"/>
<path transform="translate(465,803)" d="m0 0h4v2h2l2 4-5 3-1 2-3-1-1-4h-2l1-4z" fill="#ECEDED"/>
<path transform="translate(337,336)" d="m0 0 3 1-4 15v34h-1l-2-18v-13l3-12v-3h-3z" fill="#D2D3D4"/>
<path transform="translate(559,800)" d="m0 0 4 1 5 4-5 6-4-1-4-5 3-2z" fill="#F1F2F2"/>
<path transform="translate(364,570)" d="m0 0 8 2-1 5-5 5-5-6 1-4h2z" fill="#EEEFEF"/>
<path transform="translate(658,389)" d="m0 0 3 2-24 13-9 5-2-1 6-4h2v-2l16-8z" fill="#D2D3D4"/>
<path transform="translate(620,538)" d="m0 0 1 2-7 8h-2v2l-5-1-6-2h-10l-5-3-3-4 4 2 2 2 20 1 4 1z" fill="#D2D3D4"/>
<path transform="translate(746,396)" d="m0 0h7l4 2v2l-4 2-2 5-7-6v-2h2z" fill="#EDEEEE"/>
<path transform="translate(791,175)" d="m0 0h5l4 5v36h-1l-1-24-2-13-9-2z" fill="#D2D3D4"/>
<path transform="translate(754,503)" d="m0 0 6 5-2 4-4 1-1 3-2-4-2-5z" fill="#eee"/>
<path transform="translate(474,317)" d="m0 0 4 1-5 5-10 6-2-1 2-5z" fill="#E5E5E6"/>
<path transform="translate(825,408)" d="m0 0 5 1v2l2 1-2 5-3 4-1-4h-2l-1-5z" fill="#F5F5F5"/>
<path transform="translate(234,409)" d="m0 0h3l-2 16 3 14 1 6-3-4-3-13v-16l-2-1z" fill="#D2D3D4"/>
<path transform="translate(252,179)" d="m0 0 3 1-1 16h2v2l-5 5-3 2 1-7 4-16z" fill="#D8D9DA"/>
<path transform="translate(368,639)" d="m0 0 4 2-3 2-32 4h-7v-1l37-5z" fill="#D2D3D4"/>
<path transform="translate(456,638)" d="m0 0h4v2l-5 1-20 1h-19v-1l35-2z" fill="#D2D3D4"/>
<path transform="translate(720,370)" d="m0 0 1 2 5 1 7 3v2l-6-1-5-2h-8v2l-6 2 5-5z" fill="#D2D3D4"/>
<path transform="translate(335,548)" d="m0 0h4v3h4v2l-4 2-2 3h-2l-2-6-2-1h3z" fill="#E9EAEA"/>
<path transform="translate(430,361)" d="m0 0h2l1 3 14 8 5 4v15h-1l-1-13-3-3-16-10-2-3z" fill="#D2D3D4"/>
<path transform="translate(735,355)" d="m0 0 3 1-9 6-12 7h-3l9-7z" fill="#FEFEFE"/>
<path transform="translate(475,172)" d="m0 0v3l-9 9v1l4-2v3l-2 2-4 1-3-1 1-5 2-3 1 2z" fill="#D2D3D4"/>
<path transform="translate(221,357)" d="m0 0 6 4-5 7-1-3h-2v-2l-3-1z" fill="#EFEFEF"/>
<path transform="translate(509,420)" d="m0 0 4 2-5 3-10 2h-7v-1l16-3h-18v-1z" fill="#D2D3D4"/>
<path transform="translate(499,128)" d="m0 0h9l-1 2-7 1-12 3h-5l2-1v-2z" fill="#D2D3D4"/>
<path transform="translate(734,405)" d="m0 0 5 3v3h-2l-2 4-5-3-1-4 4-1z" fill="#F5F6F6"/>
<path transform="translate(810,273)" d="m0 0 4 4-2 1-1 35-2-1z" fill="#D2D3D4"/>
<path transform="translate(492,82)" d="m0 0 1 3-3 7-14 1h-17v-1l29-2z" fill="#D2D3D4"/>
<path transform="translate(939,246)" d="m0 0 2 2-1 16h-1l-1-13-6 7-3 3-1-3h2v-3l7-6z" fill="#D2D3D4"/>
<path transform="translate(771,164)" d="m0 0 6 1 11 3 4 4-8-2v3h-2v-4h-7l1-2-5-2z" fill="#D2D3D4"/>
<path transform="translate(735,795)" d="m0 0 1 3-5 15-1-3 2-8-3 3h-2l2-4z" fill="#D3D3D4"/>
<path transform="translate(815,442)" d="m0 0 7 2-1 4-5 1-4-3v-2z" fill="#EBEBEB"/>
<path transform="translate(211,755)" d="m0 0h1l1 8 6-2 3 2-10 2 1 3v10h-1l-1-8z" fill="#D2D3D4"/>
<path transform="translate(207,675)" d="m0 0 4 2-5 1-1 12-2-3-2-10z" fill="#D5D6D7"/>
<path transform="translate(289,528)" d="m0 0 7 4 10-1 10-3-3 3-9 3h-10l-4-2z" fill="#D2D3D4"/>
<path transform="translate(271,402)" d="m0 0h2v20h-1l-1-16-6 3-3-1 8-4z" fill="#D2D3D4"/>
<path transform="translate(384,130)" d="m0 0h10l-3 3-4-1-6 1-15 1 4-2z" fill="#D2D3D4"/>
<path transform="translate(206,777)" d="m0 0 5 1 3 10 2 3-1 3-5-10-1-4h-10l2-2z" fill="#D2D3D4"/>
<path transform="translate(756,373)" d="m0 0 3 1-20 8-3 3h-2l1-3 10-5z" fill="#D2D3D4"/>
<path transform="translate(356,110)" d="m0 0 3 1 2 15v8h-1l-2-13v-7l-4 3 1-5z" fill="#D5D6D7"/>
<path transform="translate(712,513)" d="m0 0 4 4-2 4-3 1v-2h-3v-4h3z" fill="#EEEFEF"/>
<path transform="translate(230,302)" d="m0 0h1v5l-20 4 1-6 2 3 15-3z" fill="#D2D3D4"/>
<path transform="translate(375,785)" d="m0 0 3 1v5l-3 2-5-5z" fill="#F4F4F4"/>
<path transform="translate(337,336)" d="m0 0 3 1-5 18-1-4 2-11h-3z" fill="#D3D4D5"/>
<path transform="translate(275,200)" d="m0 0 4 2 1 3 2 1-15 3h-6l4-2 11-2v-2z" fill="#D2D3D4"/>
<path transform="translate(580,863)" d="m0 0 2 1-5 4-3 5-6 3-2-1 4-4z" fill="#D2D3D4"/>
<path transform="translate(587,846)" d="m0 0 2 3v6h-4l-5-3-6 1 4-4 4 1 6 4z" fill="#D2D3D4"/>
<path transform="translate(604,815)" d="m0 0 1 2 4 1-3 6h-2l-3-4v-2z" fill="#F3F3F3"/>
<path transform="translate(581,379)" d="m0 0 2 1-14 14v-3l7-8z" fill="#DEDEDF"/>
<path transform="translate(430,343)" d="m0 0 2 1-7 5v2l-6 3h-2l2-4 6-4z" fill="#D9DADB"/>
<path transform="translate(244,205)" d="m0 0 1 4h11l1 2-12 2h-6v-1h5z" fill="#D3D4D5"/>
<path transform="translate(438,864)" d="m0 0 4 1 7 2 6 5-3 1-14-8z" fill="#D3D4D5"/>
<path transform="translate(508,405)" d="m0 0 4 2-3 2-9 2h-5l8-4v-1z" fill="#D9DADB"/>
<path transform="translate(496,103)" d="m0 0 5 5 6 7v2l-4-2-7-9z" fill="#D2D3D4"/>
<path transform="translate(289,456)" d="m0 0 4 4 1 6-1-2-3-1v-3l-11 1 4-2h6z" fill="#D2D3D4"/>
<path transform="translate(194,412)" d="m0 0h2l2 6-4 3-1-4-2-1z" fill="#F0F0F1"/>
<path transform="translate(422,816)" d="m0 0 3 3-1 4-2 1-3-2 1-5z" fill="#EAEBEB"/>
<path transform="translate(493,804)" d="m0 0h1l-1 8-3 13 2 1h-4l3-15z" fill="#D2D3D4"/>
<path transform="translate(647,784)" d="m0 0h2l1 4-3 3h-3v-2l-2-1 3-1v-2z" fill="#F0F0F0"/>
<path transform="translate(564,527)" d="m0 0 4 5 3 1 4-1v5l-6-1-5-6z" fill="#D2D3D4"/>
<path transform="translate(779,200)" d="m0 0h1l1 5v7l3 1-7-1-3-5 4 1 1 1z" fill="#D3D4D5"/>
<path transform="translate(664,99)" d="m0 0h2l6 14-1 3-5-11h-3z" fill="#D2D3D4"/>
<path transform="translate(190,430)" d="m0 0 2 4 2 2-1 4h-3l-2-5z" fill="#EFF0F0"/>
<path transform="translate(772,192)" d="m0 0 2 2 2 6v5l-3-1-4-4 1-2 3 1z" fill="#D2D3D4"/>
<path transform="translate(749,790)" d="m0 0 1 2 5-1-2 2h-3l1 1h8v1l-12 2z" fill="#D2D3D4"/>
<path transform="translate(573,596)" d="m0 0h16l-5 5h-3l2-3-10-1z" fill="#D2D3D4"/>
<path transform="translate(134,823)" d="m0 0 1 3-1 3 10-3 4 1-14 4h-2l1-6z" fill="#D2D3D4"/>
<path transform="translate(703,380)" d="m0 0 3 1 4 4 8 3-4 1-9-4-3-4z" fill="#D5D5D6"/>
<path transform="translate(435,341)" d="m0 0m-1 1m-2 1h2l-1 4-6 3-3-1 5-4z" fill="#F3F3F3"/>
<path transform="translate(548,596)" d="m0 0h15l-4 2h-6v3l-4-2z" fill="#D9DADB"/>
<path transform="translate(375,492)" d="m0 0 2 1-11 11v-3l6-7z" fill="#DFDFE0"/>
<path transform="translate(818,463)" d="m0 0h2l-1 5-3 3h-3l2-5z" fill="#DFDFE0"/>
<path transform="translate(543,272)" d="m0 0 2 4v2l-7 1-8-1v-1h12z" fill="#D3D4D5"/>
<path transform="translate(714,139)" d="m0 0 2 1-1 1 11 3v1l-9-1-7-1v-2z" fill="#D2D3D4"/>
<path transform="translate(375,466)" d="m0 0 5 2 5 5-1 1h-5v-3l-4-3z" fill="#D2D3D4"/>
<path transform="translate(784,471)" d="m0 0h3v6l-3 1-1-6z" fill="#EFEFF0"/>
<path transform="translate(416,568)" d="m0 0 3 4v2l-5-2z" fill="#F8F8F8"/>
<path transform="translate(768,491)" d="m0 0h3l-1 3h-2z" fill="#FEFEFE"/>
<path transform="translate(397,765)" d="m0 0 3 3h-3z" fill="#D9DADB"/>
<path transform="translate(197,392)" d="m0 0 2 1-1 3z" fill="#EFEFF0"/>
<path transform="translate(668,524)" d="m0 0 2 1v2h-2z" fill="#FEFEFE"/>
<path transform="translate(403,766)" d="m0 0 3 1h-3z" fill="#F3F3F3"/>
<path transform="translate(434,572)" d="m0 0h2v2h-2z" fill="#DDDDDE"/>
<path transform="translate(326,556)" d="m0 0h2v2h-2z" fill="#D2D3D4"/>
<path transform="translate(349,478)" d="m0 0 2 1-2 1z" fill="#D2D3D4"/>
<path transform="translate(734,162)" d="m0 0h2l-1 2z" fill="#D2D3D4"/>
<path transform="translate(445,798)" d="m0 0 2 1z" fill="#E8E8E9"/>
<path transform="translate(464,575)" d="m0 0 2 1z" fill="#FEFEFE"/>
<path transform="translate(432,574)" d="m0 0" fill="#FEFEFE"/>
<path transform="translate(725,538)" d="m0 0" fill="#FEFEFE"/>
<path transform="translate(212,477)" d="m0 0" fill="#D2D3D4"/>
<path transform="translate(698,383)" d="m0 0 2 1z" fill="#D2D3D4"/>
<path transform="translate(492,905)" d="m0 0" fill="#D2D3D4"/>
<path transform="translate(455,873)" d="m0 0" fill="#D2D3D4"/>
<path transform="translate(397,816)" d="m0 0" fill="#D2D3D4"/>
<path transform="translate(469,801)" d="m0 0" fill="#FEFEFE"/>
<path transform="translate(736,794)" d="m0 0" fill="#D2D3D4"/>
<path transform="translate(399,770)" d="m0 0" fill="#D2D3D4"/>
<path transform="translate(367,762)" d="m0 0" fill="#D2D3D4"/>
<path transform="translate(642,586)" d="m0 0" fill="#FEFEFE"/>
<path transform="translate(641,585)" d="m0 0" fill="#FEFEFE"/>
<path transform="translate(757,494)" d="m0 0" fill="#FEFEFE"/>
<path transform="translate(758,493)" d="m0 0" fill="#FEFEFE"/>
<path transform="translate(759,492)" d="m0 0" fill="#D2D3D4"/>
<path transform="translate(736,472)" d="m0 0" fill="#FEFEFE"/>
<path transform="translate(830,408)" d="m0 0" fill="#D2D3D4"/>
<path transform="translate(703,387)" d="m0 0" fill="#D2D3D4"/>
<path transform="translate(640,177)" d="m0 0" fill="#D2D3D4"/>
<path transform="translate(382,173)" d="m0 0" fill="#D2D3D4"/>
</svg>
