<svg xmlns="http://www.w3.org/2000/svg" viewBox="0 0 570 570" width="570" height="570">
  <g transform="translate(0,570) scale(0.1,-0.1)" fill="#ffffff">
    <path d="M2706 5520 c-8 -19 -45 -114 -80 -210 -36 -96 -71 -191 -80 -211 l-15 -37 -98 -6 c-54 -3 -177 -11 -273 -17 -96 -6 -176 -12 -178 -14 -4 -3 363 -279 406 -306 12 -8 22 -19 22 -25 0 -6 -36 -114 -79 -240 -44 -126 -78 -231 -75 -233 2 -2 102 61 221 141 120 79 223 147 229 151 6 3 116 -63 245 -148 128 -84 235 -153 236 -151 2 2 -33 106 -78 232 -44 126 -81 235 -82 243 -2 13 214 183 360 283 35 24 63 46 63 50 0 8 -95 16 -344 28 -109 5 -201 11 -203 14 -6 6 -101 259 -143 381 l-38 110 -16 -35z"/>
    <path d="M1394 4863 l-61 -168 -119 -8 c-66 -4 -141 -10 -168 -15 l-50 -7 132 -100 c73 -55 132 -105 132 -111 0 -6 -22 -78 -49 -160 -27 -82 -47 -150 -46 -152 5 -6 66 29 182 104 l115 75 131 -85 c73 -47 140 -88 150 -92 14 -5 7 23 -38 152 -30 87 -55 161 -55 165 0 4 59 52 131 108 72 55 127 101 122 102 -4 0 -80 6 -167 12 l-159 12 -54 150 c-29 83 -57 158 -61 168 -5 12 -26 -34 -68 -150z"/>
    <path d="M3983 5000 c-6 -14 -34 -88 -62 -166 l-52 -141 -117 -6 c-64 -4 -138 -10 -164 -13 l-47 -7 38 -31 c21 -18 79 -63 130 -101 50 -38 91 -72 91 -76 0 -4 -24 -77 -54 -163 -29 -86 -51 -156 -49 -156 2 0 60 36 129 80 168 107 162 105 182 87 28 -24 264 -169 268 -164 2 2 -18 71 -46 152 -27 82 -50 154 -50 160 0 12 28 36 180 152 l74 58 -39 7 c-22 3 -93 10 -157 14 -66 4 -122 12 -127 18 -6 8 -81 209 -114 306 -3 11 -7 8 -14 -10z"/>
    <path d="M2360 4018 c-124 -76 -254 -156 -290 -178 -311 -185 -1001 -654 -1352 -918 l-128 -96 0 -408 c0 -224 3 -408 6 -408 3 0 44 28 92 62 48 34 386 262 752 506 366 244 673 452 682 461 16 15 76 155 253 591 34 85 97 238 139 339 43 101 76 185 74 186 -2 2 -104 -60 -228 -137z"/>
    <path d="M2853 4133 c14 -47 400 -1014 419 -1052 20 -39 47 -59 238 -183 478 -309 1127 -738 1243 -822 43 -31 80 -56 83 -56 2 0 3 181 2 402 l-3 402 -120 93 c-264 205 -838 601 -1189 821 -67 41 -132 83 -146 93 -14 9 -119 74 -235 144 -115 70 -226 138 -246 151 -42 29 -53 30 -46 7z"/>
    <path d="M2994 2824 c4 -43 18 -178 31 -299 13 -121 29 -272 35 -335 8 -83 16 -120 28 -132 17 -16 111 -89 518 -400 121 -92 257 -197 304 -233 254 -195 604 -455 613 -455 9 0 227 553 227 576 0 10 -141 129 -285 240 -22 17 -87 68 -145 113 -222 175 -1274 968 -1319 996 -12 7 -13 -5 -7 -71z"/>
    <path d="M2344 2832 c-99 -79 -283 -223 -400 -313 -55 -41 -229 -177 -389 -300 -159 -124 -400 -310 -535 -414 -270 -209 -320 -251 -320 -269 0 -31 208 -566 221 -569 3 -1 53 34 110 79 322 250 893 690 1084 837 121 92 228 175 238 183 12 9 17 28 17 61 0 27 14 199 30 383 33 369 33 380 23 379 -5 0 -40 -26 -79 -57z"/>
    <path d="M2588 2030 c-291 -244 -1478 -1339 -1478 -1364 0 -18 345 -396 361 -396 5 0 71 48 147 107 325 253 541 419 752 577 124 93 237 181 253 195 l27 27 -2 451 -3 451 -57 -48z"/>
    <path d="M2790 1623 l1 -458 477 -357 c262 -196 527 -395 587 -442 61 -47 113 -86 117 -86 15 0 357 369 358 386 0 10 -33 42 -280 279 -101 97 -458 423 -677 618 -73 64 -196 177 -275 250 -186 172 -294 267 -302 267 -3 0 -6 -206 -6 -457z"/>
  </g>
</svg>
